<svg viewBox="0 0 100 100" xmlns="http://www.w3.org/2000/svg">
  <defs>
    <linearGradient id="mainGradient" x1="0%" y1="0%" x2="100%" y2="100%">
      <stop offset="0%" style="stop-color:#667eea;stop-opacity:1" />
      <stop offset="100%" style="stop-color:#764ba2;stop-opacity:1" />
    </linearGradient>
    <linearGradient id="accentGradient" x1="0%" y1="0%" x2="100%" y2="100%">
      <stop offset="0%" style="stop-color:#f093fb;stop-opacity:1" />
      <stop offset="100%" style="stop-color:#f5576c;stop-opacity:1" />
    </linearGradient>
  </defs>
  
  <!-- Main rounded square background -->
  <rect x="10" y="10" width="80" height="80" rx="20" ry="20" fill="url(#mainGradient)"/>
  
  <!-- Large chat bubble -->
  <path d="M25 30 C25 26 28 23 32 23 L68 23 C72 23 75 26 75 30 L75 55 C75 59 72 62 68 62 L45 62 L32 72 L32 62 C28 62 25 59 25 55 Z" 
        fill="white" 
        opacity="0.95"/>
  
  <!-- Simple AI brain/network symbol inside bubble -->
  <circle cx="40" cy="40" r="4" fill="url(#accentGradient)"/>
  <circle cx="55" cy="35" r="4" fill="url(#accentGradient)"/>
  <circle cx="60" cy="50" r="4" fill="url(#accentGradient)"/>
  
  <!-- Clean connection lines -->
  <line x1="40" y1="40" x2="55" y2="35" stroke="url(#accentGradient)" stroke-width="2.5" opacity="0.8"/>
  <line x1="55" y1="35" x2="60" y2="50" stroke="url(#accentGradient)" stroke-width="2.5" opacity="0.8"/>
  <line x1="40" y1="40" x2="60" y2="50" stroke="url(#accentGradient)" stroke-width="2.5" opacity="0.8"/>
  
  <!-- Large "V" for Vale -->
  <path d="M45 45 L50 55 L55 45" fill="none" stroke="url(#mainGradient)" stroke-width="3" stroke-linecap="round" opacity="0.6"/>
</svg>